<svg id="Layer_1" data-name="Layer 1" xmlns="http://www.w3.org/2000/svg" viewBox="0 0 300 90"><title>logo-black</title><path d="M34.2,17.5h9v9.1h-9Zm-5.3-.1h-9V31a16.842,16.842,0,0,0-4-.5C6.6,30.5.5,36.3.5,45.4c0,9.4,5.7,14.2,16.7,14.3a65.309,65.309,0,0,0,11.7-1.1Zm-9,35a15.645,15.645,0,0,1-3.1.2c-4.6,0-7.2-2.6-7.2-7.4s2.6-7.6,7.2-7.6a7.887,7.887,0,0,1,3,.5Z"/><path d="M34.2,48.6c0,7.7-.4,10.6-1.7,13.2s-3.2,4.1-7.2,5.9l8.3,4c4-1.9,5.8-3.8,7.4-6.6,1.4-2.8,2.1-6.3,2.1-13.5V31.1h-9l.1,17.5ZM60.4,30.5a25.93,25.93,0,0,0-11.9,2.7V40A24.424,24.424,0,0,1,59,37.3c2.3,0,3.1.6,3.1,2.3v1.9c-11,.9-15.6,3.8-15.6,10,0,5.7,3.4,8.4,10.9,8.4A110.131,110.131,0,0,0,70.2,59V40.8c0-3.7-.2-5.4-.9-6.8C68,31.6,65.1,30.5,60.4,30.5Zm2.2,22.7a20.867,20.867,0,0,1-4.3.4c-2.5,0-3.6-.8-3.6-2.5,0-2.4,1.9-3.3,7.9-3.9Zm87.1,7c9,0,14.8-5.7,14.8-15.2,0-9-5.5-14.6-14.4-14.6-9.1,0-14.8,5.7-14.8,15.2C135.3,54.5,140.8,60.2,149.7,60.2Zm.3-22.7c3.5,0,5.4,2.9,5.4,7.7s-2,7.7-5.5,7.7-5.5-2.8-5.5-7.7,2.1-7.7,5.6-7.7Zm-13.8-5.7a58.088,58.088,0,0,0-11.7-1.2c-13.1,0-20.6,5.7-20.6,15.8,0,8.1,5,13.3,12.8,13.3a12.174,12.174,0,0,0,5.7-1.2v.2c0,5.7-2.5,8-8.4,8a19.817,19.817,0,0,1-9.6-2.4v8.2a28.548,28.548,0,0,0,9.6,1.7c4.7,0,8.5-1,11.3-3.1a14.7,14.7,0,0,0,1.3-1,9.163,9.163,0,0,0,1.9-2.4c1.9-3,2.6-6.6,2.6-14.1V51.1c-.1-1.2-.1-2.5-.1-3.7l-.1-4.8-.1-3.8v-.9c1.8.2-.4-.2,2,.2l3.4-6.3ZM122.7,51.1v.7a9.737,9.737,0,0,1-3.4.6c-4,0-6.1-2.5-6.1-7q0-4.65,3.3-6.6a10.228,10.228,0,0,1,5.2-1.2h.9v.7l.1,2.9.1,4.1c0,1.2.1,2.5.1,3.4ZM88.8,30.5a59.881,59.881,0,0,0-14,2V59.4h9V38.2a14.1,14.1,0,0,1,4.1-.7c3.2,0,4.3,1.2,4.3,4.7V59.3h9V41.9c0-4.4-.6-6.6-2.5-8.4-1.8-1.8-5.3-3-9.9-3Zm135,15c0-9-5.5-14.6-14.4-14.6-9.1,0-14.8,5.7-14.8,15.2,0,9,5.5,14.6,14.5,14.6,8.9,0,14.7-5.9,14.7-15.2Zm-20.2.2c0-4.9,2-7.7,5.6-7.7s5.4,2.9,5.4,7.7-2,7.7-5.5,7.7-5.5-2.7-5.5-7.7Zm40.3-2.9V59.9h9V42.4c0-4.4-.6-6.6-2.5-8.4-1.8-1.8-5.3-3.1-9.9-3.1a59.881,59.881,0,0,0-14,2V60h9V38.8a11.335,11.335,0,0,1,4.1-.6c3.1-.1,4.3,1.2,4.3,4.6ZM281,59.1c1.2-1.3,1.7-2.8,1.7-5.8V41.1h-6.2V53c0,2.5-.8,3.3-3,3.3a10.4,10.4,0,0,1-2.9-.5V41.1h-6.1V59.8a39.911,39.911,0,0,0,9.8,1.3C277.3,61.3,279.7,60.6,281,59.1ZM172,56.5c2.9,2.7,8.2,3.7,11.8,3.6a17.644,17.644,0,0,0,8.1-2V50.9a14.815,14.815,0,0,1-6.1,1.5c-3.5,0-9-1.3-9-7.5s5.5-7.5,9-7.5a12.233,12.233,0,0,1,5.9,1.7V31.8a19.221,19.221,0,0,0-7.8-1.7c-3.6,0-8.5,1-11.4,3.9a14.8,14.8,0,0,0-4.9,10.9A13.821,13.821,0,0,0,172,56.5Zm120.3-8c-1.4-.7-1.3-1.4-1.3-1.4s0-1.2,2.5-1.2a13.193,13.193,0,0,1,5.2,1.2V42.4a12.221,12.221,0,0,0-6.3-1.1c-7.3.3-7.2,5.7-7.2,5.7a5.765,5.765,0,0,0,1.3,4.1,17.253,17.253,0,0,0,5.1,2.9c1.3.5,1.8,1.1,1.8,1.4s.2,1.3-2.5,1.3a15.511,15.511,0,0,1-5.7-1.5v4.9a17.677,17.677,0,0,0,8.5,1c2.7-.5,5.4-1.3,5.7-5.7.2-4.3-4.1-5.6-7.1-6.9Zm-37.2,4.2h7.2v7.2h-7.2V52.7Z"/><path d="M139.529,88.289a6.649,6.649,0,0,1-2.851-2.048,4.783,4.783,0,0,1-1.025-2.768.537.537,0,0,1,.18-.415.61.61,0,0,1,.429-.166h3.682a1.144,1.144,0,0,1,.54.111,1.807,1.807,0,0,1,.457.388,2.787,2.787,0,0,0,1.121,1.093,4.13,4.13,0,0,0,2.035.429,4.717,4.717,0,0,0,2.3-.456,1.4,1.4,0,0,0,.8-1.26,1.224,1.224,0,0,0-.415-.955,3.684,3.684,0,0,0-1.329-.664q-.914-.291-2.63-.651a11.457,11.457,0,0,1-5.011-2.021,4.718,4.718,0,0,1-1.661-3.876,5.145,5.145,0,0,1,.955-3.059,6.219,6.219,0,0,1,2.713-2.091,10.387,10.387,0,0,1,4.083-.747,9.8,9.8,0,0,1,4.222.844,7.229,7.229,0,0,1,2.74,2.1,4.465,4.465,0,0,1,1.01,2.477.61.61,0,0,1-.166.429.54.54,0,0,1-.415.18h-3.876a1.066,1.066,0,0,1-.941-.5,1.709,1.709,0,0,0-.859-.983,3.38,3.38,0,0,0-1.716-.4,3.3,3.3,0,0,0-1.8.415,1.364,1.364,0,0,0-.637,1.218,1.4,1.4,0,0,0,.831,1.259,12.508,12.508,0,0,0,3.1.927,17.811,17.811,0,0,1,4.138,1.177,5.207,5.207,0,0,1,2.27,1.828,5.083,5.083,0,0,1,.734,2.837,5.155,5.155,0,0,1-1.08,3.267,6.741,6.741,0,0,1-2.989,2.118,12.147,12.147,0,0,1-4.374.734A12,12,0,0,1,139.529,88.289Z"/><path d="M153.412,88.608a.555.555,0,0,1-.179-.4.856.856,0,0,1,.027-.249l6.451-17.746a1.082,1.082,0,0,1,1.108-.8h4.318a1.082,1.082,0,0,1,1.108.8L172.7,87.957a.849.849,0,0,1,.028.249.616.616,0,0,1-.581.581h-3.6a.962.962,0,0,1-.942-.609l-1-2.685h-7.254l-1,2.685a.961.961,0,0,1-.942.609h-3.6A.55.55,0,0,1,153.412,88.608Zm7.1-7.267h4.928l-2.464-7.06Z"/><path d="M175.033,88.581a.666.666,0,0,1-.207-.485V70.129a.718.718,0,0,1,.194-.512.648.648,0,0,1,.5-.208h3.128a1.017,1.017,0,0,1,.942.526l6.534,10.326V70.129a.718.718,0,0,1,.194-.512.648.648,0,0,1,.5-.208h3.515a.648.648,0,0,1,.5.208.722.722,0,0,1,.194.512v17.94a.724.724,0,0,1-.194.512.653.653,0,0,1-.5.207H187.2a1.014,1.014,0,0,1-.942-.525l-6.506-9.911V88.1a.65.65,0,0,1-.207.5.72.72,0,0,1-.513.194h-3.515A.668.668,0,0,1,175.033,88.581Z"/><path d="M200.806,88.581a.666.666,0,0,1-.207-.485V70.129a.718.718,0,0,1,.194-.512.648.648,0,0,1,.5-.208h7.281a9.472,9.472,0,0,1,6.368,1.952,7.3,7.3,0,0,1,2.381,5.606q.027.8.028,2.131t-.028,2.1q-.278,7.585-8.61,7.585h-7.419A.666.666,0,0,1,200.806,88.581Zm7.766-3.946a3.514,3.514,0,0,0,2.575-.83,3.813,3.813,0,0,0,.886-2.658q.056-.8.056-2.076t-.056-2.049a3.594,3.594,0,0,0-.955-2.616,3.731,3.731,0,0,0-2.643-.844H205.8V84.636h2.768Z"/><path d="M220.711,88.581a.666.666,0,0,1-.207-.485v-18a.651.651,0,0,1,.207-.5.69.69,0,0,1,.485-.194h3.959a.664.664,0,0,1,.692.692v18a.69.69,0,0,1-.194.485.654.654,0,0,1-.5.207H221.2A.67.67,0,0,1,220.711,88.581Z"/><path d="M229.82,88.581a.666.666,0,0,1-.207-.485V70.129a.718.718,0,0,1,.194-.512.648.648,0,0,1,.5-.208h13.067a.71.71,0,0,1,.72.72v2.74a.647.647,0,0,1-.208.5.718.718,0,0,1-.512.194h-8.749v3.516h8.139a.709.709,0,0,1,.72.719v2.52a.71.71,0,0,1-.72.72h-8.139v3.6h8.97a.709.709,0,0,1,.719.72v2.74a.65.65,0,0,1-.207.5.72.72,0,0,1-.512.194H230.3A.661.661,0,0,1,229.82,88.581Z"/><path d="M249.046,87.113a7.348,7.348,0,0,1-2.408-5.578q-.029-.775-.028-2.52t.028-2.547a6.955,6.955,0,0,1,2.422-5.412,9.5,9.5,0,0,1,6.27-1.924,11.6,11.6,0,0,1,4.637.858,7.456,7.456,0,0,1,3.017,2.2,4.782,4.782,0,0,1,1.093,2.754.613.613,0,0,1-.608.609h-4.291a.8.8,0,0,1-.429-.1,1.083,1.083,0,0,1-.291-.291,3.274,3.274,0,0,0-1.065-1.329,3.365,3.365,0,0,0-2.063-.553q-3.212,0-3.322,3.322-.029.775-.028,2.381t.028,2.409q.109,3.516,3.377,3.515a3.8,3.8,0,0,0,2.548-.8,3.027,3.027,0,0,0,.941-2.437v-.5H256.41a.709.709,0,0,1-.72-.719V78.3a.709.709,0,0,1,.72-.719h7.032a.709.709,0,0,1,.72.719v3.212a7.337,7.337,0,0,1-1.094,4.055,6.976,6.976,0,0,1-3.087,2.6,11.21,11.21,0,0,1-4.651.9A9.339,9.339,0,0,1,249.046,87.113Z"/><path d="M269.061,87.155a7.311,7.311,0,0,1-2.408-5.62q-.029-.775-.028-2.381t.028-2.409a7.319,7.319,0,0,1,2.422-5.633,10.614,10.614,0,0,1,12.347,0,7.322,7.322,0,0,1,2.422,5.633q.055,1.606.055,2.409,0,.829-.055,2.381a7.338,7.338,0,0,1-2.394,5.62,11,11,0,0,1-12.389,0Zm8.5-3.115a3.857,3.857,0,0,0,.913-2.672q.056-1.6.056-2.3t-.056-2.243a3.856,3.856,0,0,0-.913-2.671,3.082,3.082,0,0,0-2.3-.872,3.115,3.115,0,0,0-2.326.872,3.847,3.847,0,0,0-.913,2.671Q272,77.6,272,79.071c0,1,.009,1.763.028,2.3a3.848,3.848,0,0,0,.913,2.672,3.115,3.115,0,0,0,2.326.871A3.074,3.074,0,0,0,277.561,84.04Z"/><path d="M52.024,20.857a.679.679,0,0,1-.214-.5V18.22c0-.821.561-1.3,1.116-1.809.773-.715,1.574-1.4,2.369-2.094,1.994-1.729,4.449-3.285,6.079-5.375A2.9,2.9,0,0,0,62.1,7.189a1.864,1.864,0,0,0-2.109-2.11,2.176,2.176,0,0,0-1.711.669,3.471,3.471,0,0,0-.8,1.668.875.875,0,0,1-.97.656H52.75a.6.6,0,0,1-.441-.185.571.571,0,0,1-.186-.413,6.537,6.537,0,0,1,1.041-3.407,6.913,6.913,0,0,1,2.751-2.423,8.875,8.875,0,0,1,4.077-.9,10.173,10.173,0,0,1,4.133.769,5.841,5.841,0,0,1,2.636,2.167,5.87,5.87,0,0,1,.9,3.25,5.939,5.939,0,0,1-1.269,3.705,21.69,21.69,0,0,1-3.646,3.746L60.163,16.6h7.212a.682.682,0,0,1,.712.712v3.051a.7.7,0,0,1-.2.5.67.67,0,0,1-.513.214H52.523A.683.683,0,0,1,52.024,20.857Z"/><path d="M72.823,19.276a8.037,8.037,0,0,1-2.253-5.417q-.055-1.539-.056-2.766,0-1.254.056-2.85a8.442,8.442,0,0,1,1.07-3.805A6.8,6.8,0,0,1,74.405,1.8a9.236,9.236,0,0,1,4.4-.968,9.329,9.329,0,0,1,4.419.968,6.786,6.786,0,0,1,2.779,2.638,8.441,8.441,0,0,1,1.069,3.805q.057.8.057,2.85,0,2-.057,2.766a8.032,8.032,0,0,1-2.252,5.417,8.244,8.244,0,0,1-6.015,2.08A8.2,8.2,0,0,1,72.823,19.276ZM80.8,16.182a4.294,4.294,0,0,0,.713-2.466q.057-.825.057-2.679t-.057-2.623A4.334,4.334,0,0,0,80.8,5.977a2.307,2.307,0,0,0-2-.9q-2.566,0-2.708,3.335-.03.769-.029,2.623t.029,2.679q.142,3.336,2.708,3.336A2.337,2.337,0,0,0,80.8,16.182Z"/><path d="M90.024,20.857a.679.679,0,0,1-.214-.5V18.22c0-.821.561-1.3,1.116-1.809.773-.715,1.574-1.4,2.369-2.094,1.994-1.729,4.449-3.285,6.079-5.375a2.9,2.9,0,0,0,.727-1.753,1.864,1.864,0,0,0-2.109-2.11,2.176,2.176,0,0,0-1.711.669,3.471,3.471,0,0,0-.8,1.668.875.875,0,0,1-.97.656H90.75a.6.6,0,0,1-.441-.185.571.571,0,0,1-.186-.413,6.537,6.537,0,0,1,1.041-3.407,6.913,6.913,0,0,1,2.751-2.423,8.875,8.875,0,0,1,4.077-.9,10.173,10.173,0,0,1,4.133.769,5.841,5.841,0,0,1,2.636,2.167,5.87,5.87,0,0,1,.9,3.25,5.939,5.939,0,0,1-1.269,3.705,21.69,21.69,0,0,1-3.646,3.746L98.163,16.6h7.212a.682.682,0,0,1,.712.712v3.051a.7.7,0,0,1-.2.5.67.67,0,0,1-.513.214H90.523A.683.683,0,0,1,90.024,20.857Z"/><path d="M110.823,19.276a8.037,8.037,0,0,1-2.253-5.417q-.055-1.539-.056-2.766,0-1.254.056-2.85a8.442,8.442,0,0,1,1.07-3.805A6.8,6.8,0,0,1,112.405,1.8a9.236,9.236,0,0,1,4.4-.968,9.329,9.329,0,0,1,4.419.968,6.786,6.786,0,0,1,2.779,2.638,8.441,8.441,0,0,1,1.069,3.805q.057.8.057,2.85,0,2-.057,2.766a8.032,8.032,0,0,1-2.252,5.417,9.7,9.7,0,0,1-12,0Zm7.981-3.094a4.294,4.294,0,0,0,.713-2.466q.057-.825.057-2.679t-.057-2.623a4.334,4.334,0,0,0-.713-2.437,2.307,2.307,0,0,0-2-.9q-2.566,0-2.708,3.335-.03.769-.029,2.623t.029,2.679q.142,3.336,2.708,3.336A2.337,2.337,0,0,0,118.8,16.182Z"/></svg>