<svg width="1800" height="613" viewBox="0 0 1800 613" fill="none" xmlns="http://www.w3.org/2000/svg">
<g clip-path="url(#clip0_146_291)">
<path d="M150.393 191.672C155.283 191.672 159.036 192.981 161.653 195.598C164.27 198.215 165.579 201.968 165.579 206.858V363.724C165.579 368.613 164.27 372.367 161.653 374.984C159.036 377.601 155.283 378.909 150.393 378.909H130.146C125.256 378.909 121.503 377.601 118.886 374.984C116.269 372.367 114.96 368.613 114.96 363.724V359.419C109.726 366.169 103.58 371.351 96.4861 374.984C89.4098 378.617 81.731 380.424 73.4667 380.424C62.0001 380.424 51.6698 377.222 42.4758 370.817C33.2818 364.412 26.0678 355.632 20.851 344.509C15.617 333.37 13 320.887 13 307.062C13 293.237 15.617 280.754 20.851 269.615C26.0851 258.475 33.2818 249.712 42.4758 243.307C51.6698 236.902 62.0001 233.7 73.4667 233.7C81.731 233.7 89.4098 235.507 96.4861 239.14C103.562 242.773 109.726 247.955 114.96 254.705V206.892C114.96 202.003 116.269 198.249 118.886 195.632C121.503 193.015 125.256 191.707 130.146 191.707H150.393V191.672ZM107.367 326.913C112.429 321.593 114.96 314.982 114.96 307.045C114.96 299.108 112.429 292.496 107.367 287.176C102.306 281.856 95.9007 279.205 88.1358 279.205C80.3708 279.205 73.9316 281.856 68.7837 287.176C63.6357 292.496 61.0704 299.108 61.0704 307.045C61.0704 314.982 63.6357 321.593 68.7837 326.913C73.9316 332.234 80.3708 334.885 88.1358 334.885C95.9007 334.885 102.306 332.234 107.367 326.913Z" fill="#033A43"/>
<path d="M244.261 237.212C246.62 237.212 248.479 237.883 249.822 239.244C251.165 240.604 251.854 242.446 251.854 244.805V391.547C251.854 407.059 246.758 419.163 236.548 427.858C226.338 436.535 212.134 440.891 193.918 440.891C187.169 440.891 179.163 439.789 169.883 437.603C166.181 436.587 164.322 434.228 164.322 430.526C164.322 429.511 164.408 428.753 164.58 428.254L169.384 407.249C170.227 403.375 172.345 401.429 175.702 401.429C176.202 401.429 177.131 401.602 178.492 401.929C181.022 402.6 183.467 402.944 185.826 402.944C190.716 402.944 194.503 401.584 197.207 398.898C199.91 396.195 201.253 392.494 201.253 387.759V244.805C201.253 242.446 201.924 240.586 203.284 239.244C204.644 237.901 206.487 237.212 208.845 237.212H244.261ZM207.193 213.556C201.872 208.235 199.221 201.71 199.221 193.945C199.221 186.18 201.872 180.154 207.193 174.834C212.513 169.514 218.952 166.863 226.545 166.863C234.137 166.863 240.37 169.514 245.776 174.834C251.165 180.154 253.868 186.525 253.868 193.945C253.868 201.366 251.165 208.029 245.776 213.435C240.387 218.841 233.965 221.527 226.545 221.527C219.124 221.527 212.495 218.876 207.193 213.556Z" fill="#033A43"/>
<path d="M411.491 237.212C416.381 237.212 420.135 238.52 422.752 241.137C425.369 243.754 426.677 247.508 426.677 252.397V363.724C426.677 368.613 425.369 372.367 422.752 374.984C420.135 377.601 416.381 378.909 411.491 378.909H391.244C386.354 378.909 382.601 377.601 379.984 374.984C377.367 372.367 376.059 368.613 376.059 363.724V359.419C370.824 366.169 364.678 371.351 357.584 374.984C350.508 378.617 342.829 380.424 334.565 380.424C323.098 380.424 312.768 377.222 303.574 370.817C294.38 364.412 287.166 355.632 281.949 344.509C276.715 333.37 274.098 320.887 274.098 307.062C274.098 293.237 276.715 280.754 281.949 269.615C287.183 258.475 294.38 249.712 303.574 243.307C312.768 236.902 323.098 233.7 334.565 233.7C342.829 233.7 350.508 235.507 357.584 239.14C364.661 242.773 370.824 247.955 376.059 254.705V252.432C376.059 247.542 377.367 243.789 379.984 241.172C382.601 238.555 386.354 237.246 391.244 237.246H411.491V237.212ZM368.483 326.913C373.545 321.593 376.076 314.982 376.076 307.045C376.076 299.108 373.545 292.496 368.483 287.176C363.421 281.856 357.016 279.205 349.251 279.205C341.486 279.205 335.047 281.856 329.899 287.176C324.751 292.496 322.186 299.108 322.186 307.045C322.186 314.982 324.751 321.593 329.899 326.913C335.047 332.233 341.486 334.885 349.251 334.885C357.016 334.885 363.421 332.233 368.483 326.913Z" fill="#033A43"/>
<path d="M581.391 250.366C590.912 260.834 595.681 275.417 595.681 294.132V363.706C595.681 368.596 594.372 372.349 591.755 374.966C589.138 377.583 585.385 378.892 580.495 378.892H560.248C555.358 378.892 551.605 377.583 548.988 374.966C546.371 372.349 545.062 368.596 545.062 363.706V300.451C545.062 294.046 543.427 289.07 540.121 285.523C536.815 281.977 532.236 280.203 526.33 280.203C520.924 280.203 516.465 282.235 512.918 286.281C509.371 290.327 507.598 295.475 507.598 301.707V363.689C507.598 368.579 506.289 372.332 503.672 374.949C501.055 377.566 497.302 378.875 492.412 378.875H472.165C467.275 378.875 463.522 377.566 460.905 374.949C458.288 372.332 456.979 368.579 456.979 363.689V252.363C456.979 247.473 458.288 243.72 460.905 241.103C463.522 238.486 467.275 237.177 472.165 237.177H492.412C497.13 237.177 500.797 238.365 503.414 240.724C506.031 243.083 507.426 246.544 507.581 251.089C512.642 245.855 518.083 241.809 523.902 238.951C529.722 236.076 535.576 234.646 541.481 234.646C558.509 234.646 571.801 239.881 581.339 250.331L581.391 250.366Z" fill="#033A43"/>
<path d="M751.548 237.212C756.438 237.212 760.191 238.52 762.808 241.137C765.425 243.754 766.734 247.508 766.734 252.397V368.786C766.734 392.907 760.862 410.95 749.155 422.934C737.43 434.9 719.593 440.891 695.644 440.891C684.504 440.891 674.312 439.789 665.032 437.603C655.752 435.416 647.229 431.783 639.481 426.721C636.279 424.535 634.678 421.832 634.678 418.629C634.678 415.754 635.78 413.154 637.966 410.778L652.394 393.32C654.753 390.29 657.628 388.757 661.003 388.757C662.862 388.757 665.307 389.429 668.337 390.789C675.93 394.835 683.351 396.867 690.599 396.867C709.314 396.867 718.68 386.657 718.68 366.255V359.936C713.446 366.513 707.334 371.575 700.344 375.121C693.337 378.668 685.796 380.442 677.704 380.442C666.237 380.442 655.907 377.239 646.713 370.834C637.519 364.43 630.305 355.649 625.088 344.527C619.854 333.387 617.237 320.905 617.237 307.079C617.237 293.254 619.854 280.771 625.088 269.632C630.322 258.492 637.519 249.729 646.713 243.324C655.907 236.919 666.237 233.717 677.704 233.717C685.796 233.717 693.354 235.49 700.344 239.037C707.334 242.584 713.464 247.645 718.68 254.222V252.449C718.68 247.559 719.989 243.806 722.606 241.189C725.223 238.572 728.976 237.264 733.866 237.264H751.582L751.548 237.212ZM709.676 328.687C714.479 324.555 717.475 319.286 718.663 312.881V301.243C717.475 294.838 714.497 289.569 709.676 285.437C704.872 281.305 699.087 279.239 692.338 279.239C684.573 279.239 678.117 281.89 672.986 287.211C667.838 292.531 665.273 299.142 665.273 307.079C665.273 315.016 667.838 321.628 672.986 326.948C678.134 332.268 684.573 334.919 692.338 334.919C699.087 334.919 704.855 332.853 709.676 328.721V328.687Z" fill="#033A43"/>
<path d="M899.306 244.305C910.6 250.71 919.502 259.491 925.992 270.613C932.483 281.753 935.737 294.235 935.737 308.061C935.737 321.886 932.483 334.368 925.992 345.508C919.502 356.648 910.6 365.411 899.306 371.816C888.011 378.221 875.357 381.423 861.359 381.423C847.362 381.423 834.707 378.221 823.413 371.816C812.101 365.411 803.217 356.63 796.726 345.508C790.235 334.386 786.981 321.886 786.981 308.061C786.981 294.235 790.235 281.753 796.726 270.613C803.217 259.474 812.118 250.71 823.413 244.305C834.707 237.901 847.362 234.698 861.359 234.698C875.357 234.698 888.011 237.901 899.306 244.305ZM878.301 326.156C882.846 321.352 885.136 315.326 885.136 308.061C885.136 300.795 882.863 294.769 878.301 289.965C873.755 285.162 868.091 282.751 861.342 282.751C854.593 282.751 848.946 285.162 844.383 289.965C839.838 294.769 837.548 300.812 837.548 308.061C837.548 315.309 839.82 321.352 844.383 326.156C848.928 330.96 854.593 333.37 861.342 333.37C868.091 333.37 873.738 330.96 878.301 326.156Z" fill="#033A43"/>
<path d="M1075.92 344.991C1078.11 346.679 1079.21 348.538 1079.21 350.553C1079.21 352.068 1078.54 353.755 1077.18 355.614C1070.77 363.707 1062.66 370.042 1052.88 374.588C1043.1 379.133 1033.07 381.423 1022.77 381.423H1022.51C1009.01 381.423 996.824 378.221 985.943 371.816C975.061 365.411 966.504 356.63 960.255 345.508C954.005 334.368 950.888 321.886 950.888 308.061C950.888 294.235 954.005 281.753 960.255 270.613C966.487 259.474 975.061 250.71 985.943 244.305C996.824 237.901 1009.01 234.698 1022.51 234.698H1022.77C1033.07 234.698 1043.1 236.971 1052.88 241.533C1062.66 246.096 1070.75 252.415 1077.18 260.507C1078.52 262.366 1079.21 264.054 1079.21 265.569C1079.21 267.6 1078.11 269.443 1075.92 271.13L1054.42 287.073C1052.56 288.433 1050.78 289.105 1049.1 289.105C1047.24 289.105 1045.46 288.519 1043.78 287.331C1038.89 284.301 1033.57 282.769 1027.83 282.769C1020.41 282.769 1014.16 285.179 1009.12 289.983C1004.06 294.786 1001.52 300.829 1001.52 308.078C1001.52 315.326 1004.06 321.37 1009.12 326.173C1014.18 330.977 1020.41 333.387 1027.83 333.387C1033.74 333.387 1039.04 331.872 1043.78 328.825C1045.46 327.654 1047.24 327.051 1049.1 327.051C1050.78 327.051 1052.56 327.723 1054.42 329.083L1075.92 345.026V344.991Z" fill="#033A43"/>
<path d="M1194.06 244.305C1205.36 250.71 1214.26 259.491 1220.75 270.613C1227.24 281.753 1230.5 294.235 1230.5 308.061C1230.5 321.886 1227.24 334.368 1220.75 345.508C1214.26 356.648 1205.36 365.411 1194.06 371.816C1182.77 378.221 1170.12 381.423 1156.12 381.423C1142.12 381.423 1129.47 378.221 1118.17 371.816C1106.86 365.411 1097.98 356.63 1091.48 345.508C1084.99 334.386 1081.74 321.886 1081.74 308.061C1081.74 294.235 1084.99 281.753 1091.48 270.613C1097.98 259.474 1106.88 250.71 1118.17 244.305C1129.47 237.901 1142.12 234.698 1156.12 234.698C1170.12 234.698 1182.77 237.901 1194.06 244.305ZM1173.08 326.156C1177.62 321.352 1179.91 315.326 1179.91 308.061C1179.91 300.795 1177.64 294.769 1173.08 289.965C1168.53 285.162 1162.87 282.751 1156.12 282.751C1149.37 282.751 1143.72 285.162 1139.16 289.965C1134.61 294.769 1132.32 300.812 1132.32 308.061C1132.32 315.309 1134.6 321.352 1139.16 326.156C1143.7 330.96 1149.37 333.37 1156.12 333.37C1162.87 333.37 1168.51 330.96 1173.08 326.156Z" fill="#033A43"/>
<path d="M1372.57 250.366C1382.09 260.834 1386.86 275.417 1386.86 294.132V363.706C1386.86 368.596 1385.55 372.349 1382.94 374.966C1380.32 377.583 1376.57 378.892 1371.68 378.892H1351.43C1346.54 378.892 1342.79 377.583 1340.17 374.966C1337.55 372.349 1336.24 368.596 1336.24 363.706V300.451C1336.24 294.046 1334.61 289.07 1331.3 285.523C1328.01 281.977 1323.42 280.203 1317.51 280.203C1312.1 280.203 1307.65 282.235 1304.1 286.281C1300.55 290.327 1298.78 295.475 1298.78 301.707V363.689C1298.78 368.579 1297.47 372.332 1294.85 374.949C1292.24 377.566 1288.48 378.875 1283.59 378.875H1263.35C1258.46 378.875 1254.7 377.566 1252.09 374.949C1249.47 372.332 1248.16 368.579 1248.16 363.689V252.363C1248.16 247.473 1249.47 243.72 1252.09 241.103C1254.7 238.486 1258.46 237.177 1263.35 237.177H1283.59C1288.31 237.177 1291.98 238.365 1294.59 240.724C1297.21 243.083 1298.61 246.544 1298.76 251.089C1303.82 245.855 1309.26 241.809 1315.08 238.951C1320.9 236.076 1326.76 234.646 1332.66 234.646C1349.69 234.646 1362.98 239.881 1372.52 250.331L1372.57 250.366Z" fill="#033A43"/>
<path d="M1423.55 372.573C1417.65 366.668 1414.7 359.419 1414.7 350.811C1414.7 342.202 1417.65 335.247 1423.55 329.427C1429.46 323.608 1436.62 320.698 1445.06 320.698C1453.49 320.698 1460.45 323.642 1466.44 329.548C1472.43 335.453 1475.43 342.547 1475.43 350.794C1475.43 359.041 1472.43 366.651 1466.44 372.556C1460.45 378.462 1453.32 381.406 1445.06 381.406C1436.79 381.406 1429.46 378.462 1423.55 372.556V372.573Z" fill="#033A43"/>
<path d="M1626.73 237.212C1631.62 237.212 1635.37 238.52 1637.99 241.137C1640.61 243.754 1641.92 247.508 1641.92 252.397V363.724C1641.92 368.613 1640.61 372.367 1637.99 374.984C1635.37 377.601 1631.62 378.909 1626.73 378.909H1606.48C1601.77 378.909 1598.1 377.738 1595.48 375.363C1592.87 373.004 1591.47 369.543 1591.32 364.998C1586.25 370.232 1580.81 374.278 1574.99 377.136C1569.17 379.994 1563.3 381.44 1557.42 381.44C1540.37 381.44 1527.1 376.206 1517.56 365.755C1508.02 355.305 1503.27 340.704 1503.27 321.989V252.415C1503.27 247.525 1504.58 243.772 1507.19 241.155C1509.81 238.538 1513.56 237.229 1518.45 237.229H1538.7C1543.59 237.229 1547.34 238.538 1549.96 241.155C1552.58 243.772 1553.89 247.525 1553.89 252.415V315.671C1553.89 322.075 1555.52 327.051 1558.83 330.598C1562.12 334.145 1566.71 335.918 1572.62 335.918C1578.01 335.918 1582.48 333.886 1586.03 329.84C1589.58 325.794 1591.35 320.646 1591.35 314.414V252.432C1591.35 247.542 1592.66 243.789 1595.28 241.172C1597.89 238.555 1601.65 237.246 1606.54 237.246H1626.78L1626.73 237.212Z" fill="#033A43"/>
<path d="M1721.86 283.647C1724.22 284.576 1728.18 285.627 1733.75 286.815C1743.88 289.173 1752.55 291.79 1759.82 294.666C1767.07 297.541 1773.47 302.172 1779.05 308.577C1784.61 314.982 1787.4 323.504 1787.4 334.127C1787.4 343.063 1784.66 351.121 1779.17 358.283C1773.68 365.463 1766.14 371.11 1756.53 375.242C1746.92 379.374 1736.11 381.44 1724.15 381.44C1714.69 381.44 1705.17 379.839 1695.55 376.637C1685.94 373.434 1677.33 368.958 1669.74 363.224C1666.37 360.866 1664.68 357.904 1664.68 354.375C1664.68 351.172 1666.11 348.142 1668.98 345.267L1681.64 332.371C1684.34 329.513 1687.37 328.067 1690.75 328.067C1693.28 328.067 1696.13 328.997 1699.35 330.856C1707.27 335.074 1715.54 337.175 1724.15 337.175C1728.19 337.175 1731.52 336.675 1734.13 335.66C1736.75 334.644 1738.06 333.301 1738.06 331.614C1738.06 330.443 1737.01 329.548 1734.89 328.962C1732.77 328.377 1729.19 327.568 1724.15 326.552C1714.02 324.52 1705.26 322.127 1697.84 319.338C1690.42 316.549 1683.75 311.831 1677.85 305.168C1671.94 298.505 1669 289.363 1669 277.724C1669 269.115 1671.53 261.368 1676.59 254.446C1681.65 247.525 1688.61 242.084 1697.46 238.124C1706.31 234.164 1716.23 232.184 1727.19 232.184C1735.29 232.184 1743.6 233.441 1752.12 235.972C1760.65 238.503 1768.36 242.136 1775.28 246.853C1778.83 249.384 1780.6 252.26 1780.6 255.462C1780.6 258.664 1779.09 261.712 1776.06 264.57L1763.16 277.225C1760.29 280.1 1757.25 281.529 1754.05 281.529C1751.69 281.529 1748.82 280.685 1745.44 278.998C1740.04 276.467 1734.82 275.21 1729.76 275.21C1726.56 275.21 1723.85 275.709 1721.67 276.725C1719.48 277.741 1718.38 278.912 1718.38 280.272C1718.38 281.632 1719.57 282.769 1721.93 283.681L1721.86 283.647Z" fill="#033A43"/>
<path d="M923.496 558.76C925.08 560.051 925.872 561.497 925.872 563.081C925.872 564.528 925.372 565.819 924.357 566.972C917.866 574.772 909.774 580.832 900.115 585.154C890.439 589.475 880.126 591.645 869.158 591.645C853.714 591.645 839.855 588.15 827.596 581.142C815.32 574.152 805.73 564.51 798.809 552.235C791.888 539.976 788.41 526.254 788.41 511.103C788.41 495.952 791.87 482.23 798.809 469.971C805.73 457.712 815.337 448.071 827.596 441.063C839.855 434.073 853.714 430.561 869.158 430.561C880.126 430.561 890.439 432.73 900.115 437.052C909.791 441.39 917.866 447.52 924.357 455.457C925.372 456.61 925.872 457.833 925.872 459.141C925.872 460.588 925.08 462.103 923.496 463.687L906.829 477.753C905.383 478.907 904.023 479.492 902.715 479.492C901.561 479.492 900.184 478.924 898.6 477.753C894.709 474.723 890.198 472.381 885.067 470.711C879.936 469.058 874.633 468.215 869.158 468.215C860.928 468.215 853.68 470.16 847.396 474.051C841.111 477.942 836.273 483.176 832.899 489.753C829.507 496.33 827.803 503.424 827.803 511.086C827.803 518.747 829.49 525.841 832.899 532.4C836.291 538.977 841.129 544.194 847.396 548.102C853.68 551.994 860.928 553.939 869.158 553.939C874.788 553.939 880.126 553.147 885.17 551.563C890.215 549.979 894.691 547.672 898.6 544.642C900.184 543.488 901.561 542.903 902.715 542.903C904.006 542.903 905.383 543.488 906.829 544.642L923.496 558.708V558.76Z" fill="#DA6A9E"/>
<path d="M1065.3 432.541C1069.05 432.541 1071.91 433.522 1073.85 435.468C1075.8 437.413 1076.78 440.271 1076.78 444.025V578.25C1076.78 581.865 1075.8 584.672 1073.85 586.686C1071.91 588.718 1069.05 589.716 1065.3 589.716H1048.63C1045.01 589.716 1042.21 588.701 1040.19 586.686C1038.18 584.672 1037.16 581.848 1037.16 578.25V527.166H985.202V578.25C985.202 582.003 984.221 584.844 982.275 586.807C980.33 588.752 977.54 589.734 973.942 589.734H957.276C953.66 589.734 950.854 588.718 948.839 586.703C946.825 584.689 945.809 581.865 945.809 578.267V444.042C945.809 440.288 946.825 437.448 948.839 435.485C950.854 433.539 953.677 432.558 957.276 432.558H973.942C977.54 432.558 980.33 433.539 982.275 435.485C984.221 437.43 985.202 440.288 985.202 444.042V493.18H1037.16V444.042C1037.16 440.288 1038.18 437.448 1040.19 435.485C1042.21 433.539 1045.03 432.558 1048.63 432.558H1065.3V432.541Z" fill="#DA6A9E"/>
<path d="M1112.92 589.716C1109.3 589.716 1106.5 588.701 1104.48 586.686C1102.47 584.672 1101.45 581.848 1101.45 578.25V444.025C1101.45 440.271 1102.47 437.43 1104.48 435.468C1106.5 433.522 1109.32 432.541 1112.92 432.541H1129.59C1133.18 432.541 1135.97 433.522 1137.92 435.468C1139.86 437.413 1140.85 440.271 1140.85 444.025V578.25C1140.85 582.003 1139.86 584.844 1137.92 586.807C1135.97 588.752 1133.18 589.734 1129.59 589.734H1112.92V589.716Z" fill="#DA6A9E"/>
<path d="M1296.51 558.76C1298.09 560.051 1298.88 561.497 1298.88 563.081C1298.88 564.528 1298.38 565.819 1297.37 566.972C1290.88 574.772 1282.78 580.832 1273.12 585.154C1263.45 589.475 1253.14 591.645 1242.17 591.645C1226.72 591.645 1212.86 588.15 1200.61 581.142C1188.33 574.152 1178.74 564.51 1171.82 552.235C1164.9 539.976 1161.42 526.254 1161.42 511.103C1161.42 495.952 1164.88 482.23 1171.82 469.971C1178.74 457.712 1188.35 448.071 1200.61 441.063C1212.86 434.073 1226.72 430.561 1242.17 430.561C1253.14 430.561 1263.45 432.73 1273.12 437.052C1282.8 441.39 1290.88 447.52 1297.37 455.457C1298.38 456.61 1298.88 457.833 1298.88 459.141C1298.88 460.588 1298.09 462.103 1296.51 463.687L1279.84 477.753C1278.39 478.907 1277.03 479.492 1275.72 479.492C1274.57 479.492 1273.19 478.924 1271.61 477.753C1267.72 474.723 1263.21 472.381 1258.08 470.711C1252.95 469.058 1247.64 468.215 1242.17 468.215C1233.94 468.215 1226.69 470.16 1220.41 474.051C1214.12 477.942 1209.28 483.176 1205.91 489.753C1202.52 496.33 1200.81 503.424 1200.81 511.086C1200.81 518.747 1202.5 525.841 1205.91 532.4C1209.3 538.977 1214.14 544.194 1220.41 548.102C1226.69 551.994 1233.94 553.939 1242.17 553.939C1247.8 553.939 1253.14 553.147 1258.18 551.563C1263.23 549.979 1267.7 547.672 1271.61 544.642C1273.19 543.488 1274.57 542.903 1275.72 542.903C1277.02 542.903 1278.39 543.488 1279.84 544.642L1296.51 558.708V558.76Z" fill="#DA6A9E"/>
<path d="M1452.15 576.735C1452.72 578.319 1453.01 579.903 1453.01 581.504C1453.01 584.104 1452.15 586.118 1450.41 587.564C1448.67 589.01 1446.23 589.734 1443.06 589.734H1427.25C1420.9 589.734 1416.49 586.703 1414.05 580.643L1407.76 563.977H1353.86L1347.57 580.643C1345.27 586.703 1340.86 589.734 1334.37 589.734H1318.35C1315.19 589.734 1312.72 588.976 1311 587.461C1309.26 585.946 1308.4 583.966 1308.4 581.504C1308.4 579.92 1308.7 578.336 1309.26 576.735L1359.49 441.649C1361.66 435.588 1365.98 432.558 1372.47 432.558H1388.93C1395.56 432.558 1399.96 435.588 1402.13 441.649L1452.15 576.735ZM1380.92 490.993L1364.26 535.809H1397.38L1380.94 490.993H1380.92Z" fill="#DA6A9E"/>
<path d="M1617.11 512.859C1617.11 527.872 1613.78 541.439 1607.16 553.56C1600.51 565.681 1591.45 575.202 1579.99 582.141C1568.52 589.062 1555.71 592.54 1541.56 592.54C1525.55 592.54 1511.1 588.976 1498.26 581.831C1485.41 574.686 1475.31 564.838 1467.95 552.286C1460.6 539.735 1456.92 525.669 1456.92 510.07C1456.92 494.471 1460.52 480.628 1467.75 468.077C1474.96 455.526 1484.84 445.677 1497.41 438.532C1509.96 431.387 1524.05 427.823 1539.63 427.823C1550.46 427.823 1560.7 430.027 1570.38 434.435C1580.06 438.842 1588.13 444.937 1594.62 452.719C1595.64 453.873 1596.14 455.095 1596.14 456.404C1596.14 457.988 1595.34 459.503 1593.76 460.949L1577.09 475.016C1575.65 476.169 1574.36 476.754 1573.2 476.754C1571.91 476.754 1570.47 476.186 1568.88 475.016C1565.13 471.985 1560.69 469.644 1555.57 467.974C1550.44 466.321 1545.14 465.477 1539.66 465.477C1531.43 465.477 1524.03 467.423 1517.47 471.314C1510.91 475.205 1505.75 480.559 1501.99 487.326C1498.24 494.109 1496.36 501.685 1496.36 510.053C1496.36 518.42 1498.38 526.254 1502.42 533.106C1506.47 539.959 1512.07 545.331 1519.21 549.239C1526.36 553.13 1534.4 555.075 1543.35 555.075C1552.3 555.075 1560.48 552.51 1567.06 547.397C1573.62 542.283 1577.63 535.672 1579.07 527.597H1546.17C1542.56 527.597 1539.75 526.581 1537.74 524.567C1535.7 522.552 1534.71 519.729 1534.71 516.13V506.816C1534.71 503.217 1535.69 500.428 1537.63 498.483C1539.58 496.537 1542.44 495.556 1546.19 495.556H1605.3C1608.89 495.556 1611.72 496.279 1613.73 497.725C1615.75 499.171 1616.83 501.272 1616.99 504.009C1617.12 505.886 1617.21 508.692 1617.21 512.446V512.876L1617.11 512.859Z" fill="#DA6A9E"/>
<path d="M1746.89 440.891C1758.94 447.899 1768.33 457.488 1775.04 469.678C1781.75 481.885 1785.11 495.556 1785.11 510.707C1785.11 525.858 1781.75 539.58 1775.04 551.839C1768.33 564.114 1758.94 573.704 1746.89 580.626C1734.84 587.547 1721.24 591.025 1706.09 591.025C1690.93 591.025 1677.37 587.564 1665.38 580.626C1653.4 573.704 1644.07 564.097 1637.35 551.839C1630.64 539.58 1627.28 525.858 1627.28 510.707C1627.28 495.556 1630.64 481.885 1637.35 469.678C1644.07 457.488 1653.4 447.881 1665.38 440.891C1677.37 433.901 1690.93 430.389 1706.09 430.389C1721.24 430.389 1734.84 433.884 1746.89 440.891ZM1725.68 547.827C1731.38 544.143 1735.82 539.098 1738.99 532.676C1742.16 526.254 1743.76 518.937 1743.76 510.707C1743.76 502.477 1742.17 495.332 1738.99 488.841C1735.82 482.35 1731.38 477.254 1725.68 473.587C1719.98 469.902 1713.45 468.06 1706.09 468.06C1698.72 468.06 1692.23 469.902 1686.6 473.587C1680.97 477.271 1676.56 482.35 1673.39 488.841C1670.2 495.332 1668.62 502.632 1668.62 510.707C1668.62 518.782 1670.2 526.254 1673.39 532.676C1676.56 539.098 1680.97 544.143 1686.6 547.827C1692.23 551.512 1698.72 553.354 1706.09 553.354C1713.45 553.354 1719.98 551.512 1725.68 547.827Z" fill="#DA6A9E"/>
<path d="M380.449 146.65C384.202 146.65 387.06 147.631 389.006 149.576C390.951 151.522 391.933 154.38 391.933 158.133V168.085C391.933 171.701 390.951 174.507 389.006 176.521C387.06 178.553 384.202 179.552 380.449 179.552H290.386C286.77 179.552 283.998 178.57 282.053 176.625C280.107 174.679 279.126 171.821 279.126 168.068V158.116C279.126 157.255 279.264 155.947 279.556 154.225C279.556 152.348 280.71 150.472 283.017 148.595C299.029 134.735 313.319 120.893 325.888 107.033C338.439 93.173 344.792 82.2745 344.947 74.3374C344.947 69.7232 343.363 65.8666 340.178 62.7502C337.01 59.6512 333.033 58.1016 328.264 58.1016H328.04C324.424 58.1016 320.791 59.083 317.107 61.0285C313.422 62.9741 310.427 65.901 308.12 69.7921C306.828 71.8237 305.554 73.2872 304.332 74.2341C303.109 75.181 301.629 75.6459 299.89 75.6459C298.874 75.6459 298.082 75.577 297.514 75.4221L280.848 71.531C278.833 70.9628 277.197 70.0503 275.975 68.8279C274.753 67.6055 274.133 66.1248 274.133 64.3859C274.133 63.0946 274.271 62.0788 274.563 61.3557C278.317 49.3725 285.066 39.5931 294.811 32.0176C304.556 24.442 315.488 20.5854 327.609 20.4304H331.724C341.676 20.4304 350.663 22.6342 358.669 27.0418C366.675 31.4494 372.959 37.4754 377.505 45.1199C382.05 52.7643 384.323 61.3557 384.323 70.8768C384.323 89.213 368.81 114.471 337.785 146.65H380.432H380.449Z" fill="#DA6A9E"/>
<path d="M508.838 30.6058C518.944 37.682 526.881 47.427 532.649 59.8405C538.417 72.2541 541.309 86.114 541.309 101.403C541.309 116.692 538.417 130.551 532.649 142.965C526.881 155.379 518.944 165.124 508.838 172.183C498.731 179.259 487.471 182.788 475.057 182.788C462.644 182.788 451.349 179.259 441.174 172.183C430.999 165.106 423.027 155.379 417.259 142.965C411.492 130.551 408.599 116.692 408.599 101.403C408.599 86.114 411.492 72.2541 417.259 59.8405C423.027 47.427 430.999 37.682 441.174 30.6058C451.349 23.5295 462.644 20 475.057 20C487.471 20 498.731 23.5295 508.838 30.6058ZM488.693 141.123C492.739 137.163 495.942 131.705 498.335 124.784C500.711 117.862 501.899 110.063 501.899 101.403C501.899 92.7426 500.711 84.9432 498.335 78.0219C495.959 71.1006 492.739 65.6427 488.693 61.6828C484.647 57.7228 480.102 55.7256 475.057 55.7256C470.013 55.7256 465.416 57.7056 461.318 61.6828C457.203 65.66 453.949 71.1006 451.573 78.0219C449.197 84.9432 448.009 92.7426 448.009 101.403C448.009 110.063 449.197 117.862 451.573 124.784C453.949 131.705 457.203 137.163 461.318 141.123C465.433 145.1 470.013 147.08 475.057 147.08C480.102 147.08 484.647 145.1 488.693 141.123Z" fill="#DA6A9E"/>
<path d="M661.881 146.65C665.634 146.65 668.492 147.631 670.438 149.576C672.383 151.522 673.365 154.38 673.365 158.133V168.085C673.365 171.701 672.383 174.507 670.438 176.521C668.492 178.553 665.634 179.552 661.881 179.552H571.818C568.202 179.552 565.43 178.57 563.485 176.625C561.539 174.679 560.558 171.821 560.558 168.068V158.116C560.558 157.255 560.696 155.947 560.988 154.225C560.988 152.348 562.142 150.472 564.449 148.595C580.461 134.735 594.751 120.893 607.32 107.033C619.871 93.173 626.224 82.2745 626.379 74.3374C626.379 69.7232 624.795 65.8666 621.61 62.7502C618.442 59.6512 614.465 58.1016 609.696 58.1016H609.472C605.856 58.1016 602.223 59.083 598.539 61.0285C594.855 62.9741 591.859 65.901 589.552 69.7921C588.26 71.8237 586.986 73.2872 585.764 74.2341C584.541 75.181 583.061 75.6459 581.322 75.6459C580.306 75.6459 579.514 75.577 578.946 75.4221L562.28 71.531C560.265 70.9628 558.63 70.0503 557.407 68.8279C556.185 67.6055 555.565 66.1248 555.565 64.3859C555.565 63.0946 555.703 62.0788 555.995 61.3557C559.749 49.3725 566.498 39.5931 576.243 32.0176C585.988 24.442 596.921 20.5854 609.041 20.4304H613.156C623.108 20.4304 632.095 22.6342 640.101 27.0418C648.107 31.4494 654.392 37.4754 658.937 45.1199C663.482 52.7643 665.755 61.3557 665.755 70.8768C665.755 89.213 650.242 114.471 619.217 146.65H661.864H661.881Z" fill="#DA6A9E"/>
<path d="M791.027 154.225C786.344 162.593 779.629 169.101 770.9 173.715C762.171 178.329 751.875 180.722 740.047 180.86H738.755C726.772 180.567 715.994 176.607 706.387 168.946C696.78 161.301 690.186 151.625 686.57 139.935C686.277 139.212 686.14 138.196 686.14 136.905C686.14 135.166 686.759 133.702 687.982 132.463C689.204 131.24 690.823 130.328 692.854 129.759L709.521 125.868C710.089 125.731 710.898 125.645 711.897 125.645C713.635 125.645 715.099 126.109 716.339 127.056C717.561 128.003 718.835 129.467 720.126 131.498C722.296 135.252 725.171 138.093 728.787 140.055C732.385 142.001 735.932 143.051 739.392 143.189C745.746 143.051 750.825 141.174 754.647 137.559C758.469 133.96 760.38 129.122 760.38 123.062C760.38 117.002 758.211 112.714 753.889 109.323C749.568 105.931 743.783 104.244 736.569 104.244C732.815 104.244 728.528 104.932 723.69 106.292C718.852 107.67 714.565 109.357 710.812 111.389C709.366 112.112 708.212 112.473 707.351 112.473C705.905 112.473 704.39 111.819 702.806 110.528L691.976 101.868L690.892 100.783C689.308 99.6294 688.653 97.8905 688.946 95.5834L698.467 28.2642C699.19 24.3732 701.205 22.4104 704.528 22.4104H780.507C783.245 22.4104 785.379 23.3918 786.895 25.3373C788.41 27.2829 789.167 30.1409 789.167 33.8943V44.0696C789.167 51.5763 786.275 55.3296 780.507 55.3296H728.339L725.533 77.6259C732.316 76.1796 738.445 75.4565 743.938 75.4565H744.368C761.103 75.5943 774.24 80.0363 783.761 88.7654C793.282 97.4945 798.051 109.512 798.051 124.818C798.051 136.078 795.71 145.892 791.009 154.26L791.027 154.225Z" fill="#DA6A9E"/>
</g>
<defs>
<clipPath id="clip0_146_291">
<rect width="1774.39" height="572.54" fill="white" transform="translate(13 20)"/>
</clipPath>
</defs>
</svg>
