<svg width="1012" height="374" viewBox="0 0 1012 374" fill="none" xmlns="http://www.w3.org/2000/svg">
<g clip-path="url(#clip0_75_288)">
<path d="M249.66 37.7C249.66 52.4 232.46 73.43 215.26 84.6C214.67 85.04 214.38 85.33 214.38 85.63C214.38 85.93 214.82 85.92 215.7 85.92C216.14 85.92 223.05 85.48 227.02 85.48C229.23 85.48 231.28 85.48 233.05 85.63C234.67 85.78 235.99 86.95 236.28 88.42C237.01 91.51 237.9 97.24 238.49 101.65C238.49 103.12 237.46 104.15 235.84 104.3C226.58 104.89 197.03 106.65 187.62 107.09C186 107.09 184.24 106.5 183.5 105.03C182.03 101.8 179.53 92.68 179.53 91.5C179.53 90.18 180.27 88.85 181.29 88.12C209.52 70.62 229.07 42.98 229.37 32.84C229.22 28.43 225.84 26.81 222.61 26.81C217.46 26.81 209.38 32.25 203.35 41.81C202.91 42.54 202.17 42.99 201.29 42.99C200.41 42.99 199.53 42.4 199.53 42.4C196.15 40.2 192.18 36.96 189.97 34.46C189.24 33.73 188.79 32.7 188.79 31.52C188.79 31.08 188.94 30.34 189.08 29.9C191.87 22.99 202.9 7.99001 217.31 7.99001C230.69 7.99001 249.66 22.55 249.66 37.69V37.7Z" fill="#DB433B"/>
<path d="M256.13 92.69C252.6 86.81 251.57 77.84 251.57 70.34C251.57 50.93 262.01 8.59 289.5 8.59C295.38 8.59 311.7 15.06 317.29 24.62C320.52 30.21 321.7 37.26 321.7 44.03C321.7 65.94 310.53 107.25 283.47 107.25C277.74 107.25 262.59 102.1 256.12 92.69H256.13ZM272.45 73.57C272.45 85.19 276.42 88.57 280.39 88.57C291.27 88.57 300.39 60.19 300.39 39.61C300.39 29.47 297.16 26.67 293.63 26.67C283.04 26.67 272.46 53.28 272.46 73.57H272.45Z" fill="#DB433B"/>
<path d="M389.04 37.7C389.04 52.4 371.84 73.43 354.64 84.6C354.05 85.04 353.76 85.33 353.76 85.63C353.76 85.93 354.2 85.92 355.08 85.92C355.52 85.92 362.43 85.48 366.4 85.48C368.61 85.48 370.66 85.48 372.43 85.63C374.05 85.78 375.37 86.95 375.66 88.42C376.39 91.51 377.28 97.24 377.87 101.65C377.87 103.12 376.84 104.15 375.22 104.3C365.96 104.89 336.41 106.65 327 107.09C325.38 107.09 323.62 106.5 322.88 105.03C321.41 101.8 318.91 92.68 318.91 91.5C318.91 90.18 319.65 88.85 320.67 88.12C348.9 70.62 368.45 42.98 368.75 32.84C368.6 28.43 365.22 26.81 361.99 26.81C356.84 26.81 348.76 32.25 342.73 41.81C342.29 42.54 341.55 42.99 340.67 42.99C339.79 42.99 338.91 42.4 338.91 42.4C335.53 40.2 331.56 36.96 329.35 34.46C328.62 33.73 328.17 32.7 328.17 31.52C328.17 31.08 328.32 30.34 328.46 29.9C331.25 22.99 342.28 7.99001 356.69 7.99001C370.07 7.99001 389.04 22.55 389.04 37.69V37.7Z" fill="#DB433B"/>
<path d="M449.32 63.72C451.08 63.72 451.82 64.9 452.11 66.37C452.7 69.75 453.43 76.22 453.43 80.19C453.43 81.51 452.55 82.84 450.93 82.84C450.2 82.84 444.46 82.99 443.73 82.99C441.97 82.99 441.08 84.31 440.79 85.78C439.91 92.1 438.88 98.42 438.14 104.6C437.99 106.07 436.96 106.95 435.64 106.95C433.14 106.95 424.32 104.3 421.38 103.13C419.62 102.54 418.73 100.92 418.73 99.45C418.88 96.07 419.76 87.1 419.76 86.51C419.76 85.33 418.88 84.6 417.85 84.6C414.47 84.6 394.77 86.51 393.59 86.51C391.83 86.51 390.5 85.78 389.91 84.45C388.44 81.51 385.21 72.39 385.21 70.19C385.21 68.87 385.65 67.4 386.39 66.51C396.98 52.4 419.76 19.61 426.67 10.64C427.4 9.76 428.29 9.17 429.46 9.17C430.78 9.17 433.58 11.08 434.61 11.08C435.2 11.08 435.64 10.79 435.93 10.2C436.37 9.32 437.4 8.58 438.58 8.58C440.34 8.58 450.34 11.37 454.16 12.7C455.34 13.14 455.78 14.17 455.78 15.2C455.78 15.49 455.63 16.23 455.63 16.23C452.98 24.17 448.87 40.49 445.04 60.63C445.04 60.63 444.89 61.51 444.89 61.95C444.89 62.83 445.48 63.71 446.51 63.71H449.3L449.32 63.72ZM408.75 65.19C408.75 65.63 409.19 66.07 409.93 66.07C410.22 66.07 416.99 65.34 420.52 65.04C421.99 64.89 422.87 64.16 423.17 62.69C424.79 53.57 427.73 39.31 427.73 38.28C427.73 37.84 427.73 37.55 427.58 37.55C427.29 37.55 426.85 38.14 426.85 38.14C425.09 40.49 410.68 61.96 409.21 64.16C408.92 64.6 408.77 64.89 408.77 65.19H408.75Z" fill="#DB433B"/>
<path d="M437.37 365.61C433.11 363.26 425.31 355.61 421.05 351.2C420.02 350.17 419.58 348.85 419.58 347.52C419.58 336.49 427.23 299.15 430.9 286.21C431.05 285.62 431.05 284.89 431.05 284.3C431.05 281.21 430.46 276.36 430.46 275.48C430.46 274.3 431.05 273.28 432.22 272.83C440.45 269.3 450.45 266.95 456.77 266.95C479.41 266.95 497.5 291.36 497.5 309.88C497.5 338.84 472.21 364.43 442.81 366.48C440.9 366.48 438.99 366.33 437.37 365.6V365.61ZM477.21 303.42C477.21 292.39 467.95 285.78 457.95 285.78C456.92 285.78 456.04 285.78 455.01 285.93C453.25 286.22 452.36 286.96 452.07 288.43C448.54 302.84 443.84 323.28 440.9 342.68C440.9 342.68 440.75 343.56 440.75 343.86C440.75 345.04 441.48 345.48 442.81 345.48C453.84 345.48 477.21 331.22 477.21 303.43V303.42Z" fill="#DB433B"/>
<path d="M574.98 276.66V280.34C574.98 305.48 566.6 366.64 535.58 366.64C523.38 366.64 511.17 358.41 506.91 352.38C503.68 347.82 502.21 340.32 502.21 333.41C502.21 309.3 511.47 279.75 516.18 270.92C517.06 269.45 518.09 268.57 520 268.57C522.79 268.57 530.59 271.07 534.26 272.39C535.44 272.83 536.02 274.15 536.02 275.33C536.02 276.07 535.73 276.95 535.73 276.95C529.85 292.83 523.23 320.47 523.23 334.29C523.23 341.94 524.7 347.23 530.58 347.23C538.96 347.23 543.67 334.73 547.49 319.44C551.9 301.94 554.55 279.3 555.28 271.66C555.43 270.19 556.46 269.31 557.78 269.31C559.99 269.31 568.81 271.52 572.34 272.84C574.1 273.57 574.84 275.19 574.99 276.66H574.98Z" fill="#DB433B"/>
<path d="M624.24 330.76C624.24 331.49 624.68 332.08 624.68 332.08C629.68 339.87 635.56 348.25 640.41 352.52C641 353.11 641.29 353.84 641.29 354.58C641.29 355.17 641 355.76 640.56 356.34C637.33 359.43 631.15 363.99 626.89 365.9C626.89 365.9 626.3 366.19 625.42 366.19C624.1 366.19 622.92 365.6 622.19 365.01C614.1 358.1 607.63 343.4 605.13 334.72C604.54 333.25 603.95 332.22 602.78 332.22H601.02C599.55 332.22 598.96 332.95 598.81 334.43C597.05 344.28 595.58 354.42 594.55 363.98C594.26 365.45 593.23 366.33 591.9 366.33C588.81 366.33 578.08 362.95 577.05 362.51C574.84 361.63 574.55 360.3 574.4 358.83C574.69 342.07 581.6 306.34 587.19 284.73C587.48 283.55 587.48 282.97 587.48 282.38C587.48 279.88 586.75 276.79 586.75 275.62C586.75 274.3 587.78 273.12 588.81 272.68C594.54 270.33 604.39 267.39 616.6 267.39C635.57 267.39 650.71 287.39 650.71 300.03C650.71 312.67 639.98 324 625.86 328.99C624.83 329.43 624.24 329.87 624.24 330.75V330.76ZM608.51 288.42C607.92 290.48 602.63 312.53 602.63 314C602.63 315.03 603.22 315.47 604.25 315.47C617.92 315.47 628.8 305.33 628.8 296.5C628.8 288.85 622.62 285.62 615.42 285.62C614.24 285.62 613.07 285.62 611.89 285.77C609.98 285.92 608.95 286.95 608.51 288.42Z" fill="#DB433B"/>
<path d="M715.25 267.98C717.6 267.98 727.6 270.77 731.28 272.1C732.31 272.54 733.04 273.57 733.04 274.75C733.04 275.19 732.89 275.63 732.89 275.63C728.19 289.01 718.92 329.15 714.95 363.99C714.8 365.46 713.77 366.2 712.6 366.2C709.66 366.2 699.22 363.11 697.6 362.52C695.69 361.79 695.1 360.46 694.95 358.7C694.95 352.23 697.01 338.26 697.01 337.38C697.01 336.2 696.13 335.32 694.66 335.32C689.66 335.61 683.19 335.76 677.6 335.91C675.98 335.91 674.95 337.23 674.66 338.56C673.19 347.09 671.87 355.62 670.98 364C670.83 365.47 669.66 366.21 668.48 366.21C665.39 366.21 655.25 363.27 653.48 362.53C652.01 361.94 651.13 360.47 650.98 358.71C651.27 351.36 653.19 336.95 653.19 336.36C653.19 335.48 652.9 335.04 652.45 334.6C652.16 334.16 651.72 333.72 651.42 332.84C650.83 330.64 650.39 326.67 650.24 323.72C650.24 321.81 650.68 321.07 653.33 320.34C655.39 319.75 656.27 318.72 656.56 317.4C660.09 297.4 665.09 277.56 668.17 270.06C668.76 268.88 669.79 268.15 671.11 268.15C673.76 268.15 683.9 270.8 687.28 272.12C688.31 272.41 689.04 273.74 689.04 274.91C689.04 275.35 688.75 276.23 688.75 276.23C686.1 283.29 682.72 296.81 679.05 314.16C679.05 314.16 678.9 314.89 678.9 315.34C678.9 316.37 679.78 317.25 680.96 317.25C681.55 317.25 694.93 316.81 697.87 316.81C699.34 316.81 700.66 315.78 700.96 314.31C704.64 295.49 709.19 277.26 712.28 270.06C712.72 268.88 713.9 268 715.22 268L715.25 267.98Z" fill="#DB433B"/>
<path d="M730.39 340.76C730.39 339 727.89 332.82 727.89 330.17C727.89 328.7 728.62 327.67 730.24 327.38C731.86 327.09 733.77 326.65 733.77 326.65C735.83 326.21 736.42 325.47 737.3 323.71C745.09 308.27 757.74 278.72 764.35 270.93C765.23 269.9 766.26 269.61 767.29 269.61C768.76 269.61 771.41 270.64 772.29 270.64C773.47 270.64 774.64 269.91 774.79 268.73C774.94 267.7 775.52 266.82 776.7 266.82C778.76 266.82 789.2 270.5 791.55 271.67C793.17 272.41 794.2 273.88 794.49 275.64C796.11 284.02 796.84 308.87 796.84 330.92C796.84 344.89 796.4 357.53 795.66 364.15C795.51 365.33 794.48 366.36 792.72 366.36C790.22 366.36 779.78 364.74 777.14 363.86C775.67 363.42 774.79 362.1 774.79 360.04C774.79 356.66 775.23 345.93 775.23 343.57C775.23 342.25 774.35 341.36 772.88 341.36C766.26 341.36 755.68 341.95 753.91 342.1C752.15 342.25 751.41 342.98 750.53 344.75C747.74 350.92 745.24 358.86 743.03 364.01C742.44 365.19 741.41 365.77 740.38 365.77C738.03 365.77 729.35 361.65 727 360.04C725.97 359.31 725.24 358.42 725.24 357.1C725.24 356.36 725.39 355.92 725.39 355.92L730.09 342.54C730.38 341.81 730.38 341.36 730.38 340.78L730.39 340.76ZM759.21 322.53C759.21 323.41 759.8 323.71 761.27 323.71C764.95 323.71 770.97 323.56 772.88 323.56C774.5 323.56 775.38 322.83 775.67 320.77C775.82 317.54 775.82 314.15 775.82 310.77C775.82 302.68 775.53 294.89 775.38 290.19C775.38 289.31 775.09 288.87 774.79 288.87C774.49 288.87 774.2 289.16 773.91 289.75C770.23 297.69 765.09 309.3 759.5 321.65C759.5 321.65 759.21 322.24 759.21 322.53Z" fill="#DB433B"/>
<path d="M822.28 366.34C819.19 366.34 810.08 363.55 807.72 362.66C805.81 361.92 805.22 360.45 805.07 358.84C805.81 337.52 816.98 284 823.01 270.48C823.6 269.16 825.22 268.27 826.98 268.27C829.04 268.27 844.33 271.36 850.65 274C852.27 274.73 852.41 276.35 852.41 277.82C852.56 283.55 852.56 305.46 852.41 318.99C852.41 319.58 852.56 320.17 852.85 320.17C853.14 320.17 853.58 319.14 853.58 319.14C859.75 303.7 866.67 284 873.72 269.89C874.46 268.71 875.63 267.83 877.25 267.83C881.81 267.83 898.27 272.24 903.13 274.45C904.45 274.89 905.04 276.07 905.04 277.24C905.04 277.68 904.89 278.12 904.89 278.12C900.04 293.12 891.36 330.61 887.54 364.13C887.39 365.45 886.22 366.34 884.89 366.34C882.54 366.34 872.83 363.99 870.04 362.66C868.28 361.78 867.54 360.45 867.39 358.84C867.39 344.43 876.51 305.47 876.51 303.71C876.51 303.42 876.36 303.12 876.22 303.12C876.08 303.12 875.78 303.41 875.48 304C869.75 317.09 864.75 333.11 857.98 350.9C857.54 352.08 856.22 353.11 854.89 353.11C852.69 353.11 844.01 350.32 840.19 348.55C838.43 347.67 837.69 345.9 837.54 344.43C835.92 332.96 836.36 315.61 835.92 303.41C835.77 302.67 835.63 302.38 835.48 302.38C835.33 302.38 835.04 302.67 834.89 303.26C831.07 320.02 827.39 342.66 825.04 364.13C824.75 365.45 823.57 366.34 822.25 366.34H822.28Z" fill="#DB433B"/>
<path d="M89.19 99.61C92.83 99.61 107.77 104.05 110.4 105.47C111.81 106.28 112.82 107.69 112.82 109.31C112.82 109.71 112.62 110.52 112.62 110.52C105.75 129.91 92.22 185.86 85.96 236.36C85.76 238.38 84.14 239.59 82.32 239.59C79.09 239.59 68.99 236.76 65.96 235.55C64.14 234.74 62.73 233.13 62.53 230.3L62.13 223.63C62.13 222.62 61.73 221.61 61.12 221.61C60.72 221.61 60.31 221.81 59.71 222.62C53.25 232.11 45.57 240.19 39.11 240.19C24.97 240.19 9.01001 221.81 9.01001 203.63C9.01001 170.5 25.98 136.57 51.43 136.57C56.08 136.57 62.34 138.99 68.8 142.43C68.8 142.43 69.81 143.04 70.42 143.04C71.63 143.04 72.44 142.23 72.84 140.41C77.08 122.84 81.12 109.71 84.56 102.43C85.37 100.81 87.19 99.6 89.21 99.6L89.19 99.61ZM61.52 197.18C63.74 186.68 67.58 167.69 67.58 166.07C67.58 164.66 66.97 163.44 65.36 162.84C62.53 161.83 59.91 161.22 58.29 161.22C45.16 161.22 37.89 188.89 37.89 202.83C37.89 208.69 39.3 212.73 41.12 212.73C45.36 212.73 53.04 207.28 58.9 201.82C60.52 200.41 61.32 198.59 61.53 197.17L61.52 197.18Z" fill="#DB433B"/>
<path d="M134.64 129.11C146.76 129.11 154.23 121.43 154.23 110.73C154.23 98.81 142.51 93.96 132.82 93.96C130.8 93.96 127.77 94.97 126.36 95.98C122.12 99.41 117.67 104.87 117.67 111.94C117.67 121.23 122.92 129.11 134.64 129.11Z" fill="#DB433B"/>
<path d="M200.9 230.71L200.29 222.23C200.29 221.22 199.89 220.61 199.48 220.61C199.07 220.61 198.67 221.01 198.27 221.62C191.2 232.93 183.12 240.2 176.86 240.2C162.52 240.2 146.56 222.63 146.56 203.64C146.56 169.91 162.72 136.58 190.6 136.58C200.5 136.58 220.7 144.46 235.24 153.95C236.65 154.76 237.66 156.37 237.66 158.19C237.66 158.8 237.26 160.41 237.26 160.41C229.18 189.09 226.35 220.4 225.95 236.56C225.75 238.38 224.33 239.79 222.52 239.79C217.27 239.79 206.16 236.76 204.54 235.95C201.91 234.54 201.11 232.72 200.9 230.7V230.71ZM199.08 197.18C201.3 186.68 205.14 167.69 205.14 166.07C205.14 164.66 204.53 163.44 202.92 162.84C200.09 161.83 197.47 161.22 195.85 161.22C182.72 161.22 175.45 188.89 175.45 202.83C175.45 208.69 176.86 212.73 178.68 212.73C182.92 212.73 190.6 207.28 196.46 201.82C198.08 200.41 198.88 198.59 199.09 197.17L199.08 197.18Z" fill="#DB433B"/>
<path d="M307.14 136.98C317.24 136.98 331.78 151.73 331.78 161.83C331.78 170.92 324.1 213.14 317.84 236.77C317.23 238.39 315.42 240 313.6 240C308.95 240 297.04 235.56 292.59 233.13C290.97 232.12 290.17 230.3 290.17 228.48C290.17 227.67 290.37 226.66 290.37 226.66C290.37 226.66 300.67 184.24 300.67 171.31C300.67 167.88 300.06 165.65 298.65 165.65C295.62 165.65 286.93 170.5 279.46 178.17C277.44 180.19 276.43 182.61 276.03 184.63C272.39 202.81 267.95 225.43 265.53 236.54C265.13 238.36 263.51 239.77 261.69 239.77C257.25 239.77 243.91 235.33 241.09 233.91C239.27 232.9 238.46 231.28 238.46 229.47C238.46 228.06 250.58 156.55 253 139.99C253.4 137.97 255.22 136.56 257.04 136.56C259.26 136.56 272.59 138.98 276.43 140.6C278.65 141.61 280.07 143.83 280.07 146.05C280.07 148.07 280.27 151.1 280.27 154.13C280.27 155.34 280.67 155.95 281.08 155.95C281.69 155.95 282.49 154.94 282.49 154.94C290.57 144.64 299.86 136.96 307.13 136.96L307.14 136.98Z" fill="#DB433B"/>
<path d="M380.87 136.58C389.96 136.58 412.18 145.27 425.11 153.55C426.52 154.56 427.33 156.38 427.33 158.2C427.33 159.01 427.13 159.82 427.13 159.82C422.89 177.19 417.43 210.72 412.59 235.16C410.17 247.68 400.47 276.97 370.58 276.97C363.31 276.97 350.38 272.93 344.12 268.28C342.3 267.07 341.7 265.65 341.7 264.04C341.7 261.62 344.53 251.92 345.54 249.7C346.15 248.29 347.36 247.48 348.77 247.48C349.17 247.48 349.98 247.68 350.39 247.88C356.45 250.51 361.7 251.52 365.54 251.52C382.1 251.52 387.15 233.14 387.15 224.65C387.15 223.64 386.75 223.03 386.34 223.03C385.93 223.03 385.73 223.23 385.13 224.04C379.07 232.52 372 238.79 366.14 238.79C351.8 238.79 336.45 222.02 336.45 202.43C336.45 168.49 353.62 136.58 380.89 136.58H380.87ZM388.95 197.18C391.17 186.68 395.01 167.69 395.01 166.07C395.01 164.66 394.4 163.44 392.79 162.84C389.96 161.83 387.34 161.22 385.72 161.22C372.59 161.22 365.32 188.89 365.32 202.83C365.32 208.69 366.73 212.73 368.55 212.73C372.79 212.73 380.47 207.28 386.33 201.82C387.95 200.41 388.75 198.59 388.95 197.17V197.18Z" fill="#DB433B"/>
<path d="M517.63 177.38C517.63 195.36 506.72 240.2 474.2 240.2C465.11 240.2 447.94 235.15 438.65 225.25C432.99 219.19 430.17 209.9 430.17 198.59C430.17 175.56 443.7 136.38 471.58 136.38C482.08 136.38 501.07 144.26 509.76 152.94C515.01 158.39 517.44 168.09 517.64 176.37V177.38H517.63ZM488.13 174.96C488.13 165.87 485.3 159.81 479.85 159.81C468.74 159.81 459.25 186.27 459.25 202.43C459.25 210.51 461.88 216.37 467.73 216.37C480.05 216.37 488.13 190.31 488.13 174.96Z" fill="#DB433B"/>
<path d="M572.97 181.42C572.97 179.8 575.6 170.11 575.6 166.27C575.6 162.43 574.59 160.01 571.76 160.01C562.87 160.01 551.56 181.22 551.56 197.58C551.56 207.48 556 213.54 563.48 213.54C570.55 213.54 578.23 210.71 583.88 207.48C583.88 207.48 584.69 207.08 585.5 207.08C586.91 207.08 587.72 207.69 588.53 209.1C589.94 211.73 593.78 220.01 593.78 222.84C593.78 225.06 592.97 226.68 591.76 227.89C584.49 234.35 574.99 240.21 563.68 240.21C557.01 240.21 538.43 234.76 530.75 225.06C525.3 218.19 522.47 209.51 522.47 198.4C522.47 170.12 541.05 136.39 564.08 136.39C571.96 136.39 603.06 147.1 603.06 163.46C603.06 168.31 599.22 178 597.2 181.24C596.19 182.86 594.57 184.07 592.35 184.27C589.12 184.47 580.63 184.47 575.99 184.47C574.17 184.27 572.96 183.06 572.96 181.44L572.97 181.42Z" fill="#DB433B"/>
<path d="M693.56 177.38C693.56 195.36 682.65 240.2 650.13 240.2C641.04 240.2 623.87 235.15 614.58 225.25C608.92 219.19 606.1 209.9 606.1 198.59C606.1 175.56 619.63 136.38 647.51 136.38C658.01 136.38 677 144.26 685.69 152.94C690.94 158.39 693.37 168.09 693.57 176.37V177.38H693.56ZM664.07 174.96C664.07 165.87 661.24 159.81 655.79 159.81C644.68 159.81 635.19 186.27 635.19 202.43C635.19 210.51 637.82 216.37 643.67 216.37C655.99 216.37 664.07 190.31 664.07 174.96Z" fill="#DB433B"/>
<path d="M764.47 136.98C774.57 136.98 789.11 151.73 789.11 161.83C789.11 170.92 781.43 213.14 775.17 236.77C774.56 238.39 772.75 240 770.93 240C766.28 240 754.37 235.56 749.92 233.13C748.3 232.12 747.5 230.3 747.5 228.48C747.5 227.67 747.7 226.66 747.7 226.66C747.7 226.66 758 184.24 758 171.31C758 167.88 757.39 165.65 755.98 165.65C752.95 165.65 744.26 170.5 736.79 178.17C734.77 180.19 733.76 182.61 733.36 184.63C729.72 202.81 725.28 225.43 722.86 236.54C722.46 238.36 720.84 239.77 719.02 239.77C714.58 239.77 701.24 235.33 698.42 233.91C696.6 232.9 695.79 231.28 695.79 229.47C695.79 228.06 707.91 156.55 710.33 139.99C710.73 137.97 712.55 136.56 714.37 136.56C716.59 136.56 729.92 138.98 733.76 140.6C735.98 141.61 737.4 143.83 737.4 146.05C737.4 148.07 737.6 151.1 737.6 154.13C737.6 155.34 738 155.95 738.41 155.95C739.02 155.95 739.82 154.94 739.82 154.94C747.9 144.64 757.19 136.96 764.46 136.96L764.47 136.98Z" fill="#DB433B"/>
<path d="M820.82 223.44C820.82 233.34 814.56 240.61 804.26 240.61C793.96 240.61 789.31 232.93 789.31 224.65C789.31 217.58 791.94 213.94 796.38 209.9C797.59 208.69 800.02 207.68 802.04 207.68C811.13 207.68 820.83 212.73 820.83 223.44H820.82Z" fill="#DB433B"/>
<path d="M923.84 147.08C923.84 147.89 923.44 149.1 923.44 149.1C914.35 178.79 909.5 218.59 908.9 236.56C908.9 238.38 907.49 239.99 905.67 239.99C901.43 239.99 891.93 237.36 889.11 236.15C887.09 235.34 885.68 233.52 885.07 230.7C884.67 229.08 884.46 224.24 884.26 221C884.26 219.59 883.86 218.78 883.25 218.78C882.64 218.78 882.04 219.99 882.04 219.99C874.77 232.11 865.68 240.39 858.2 240.39C846.28 240.39 830.53 224.23 830.53 208.27C830.53 183.63 839.22 153.53 844.27 141.01C844.88 139.39 846.49 137.98 848.31 137.98C851.14 137.98 864.07 143.03 868.71 145.66C870.12 146.47 871.13 147.88 871.13 149.5C871.13 150.91 870.73 152.13 870.73 152.13C866.69 164.05 859.01 195.16 859.01 207.07C859.01 210.1 859.41 211.92 860.63 211.92C865.68 211.92 875.17 205.05 881.84 196.37C883.05 194.75 883.66 193.34 884.06 190.92C886.69 172.94 891.94 151.33 895.57 140.83C896.18 139.01 897.99 137.6 900.01 137.6C903.04 137.6 914.76 140.83 920.82 143.46C922.44 144.07 923.85 145.48 923.85 147.1L923.84 147.08Z" fill="#DB433B"/>
<path d="M959.39 136.58C970.5 136.58 1003.83 146.88 1003.83 161.83C1003.83 167.08 999.79 175.16 998.17 177.38C996.55 179.6 994.53 180.21 992.72 180.41H977.57C975.55 180.41 974.54 179 974.54 177.78C974.54 176.16 976.56 170.91 976.56 166.87C976.56 161.42 974.14 158.59 971.11 158.59C964.24 158.59 958.18 169.9 958.18 175.36C958.18 189.3 996.56 186.07 996.56 209.3C996.56 223.84 982.22 240.41 961.61 240.41C949.49 240.41 931.71 234.55 925.25 228.69C923.43 227.07 923.03 225.66 923.03 224.65C923.03 222.02 925.45 213.14 927.27 209.3C928.08 207.48 928.89 206.88 930.1 206.88C931.31 206.88 932.12 207.69 932.52 207.69C939.59 211.53 949.49 216.78 957.77 216.78C962.42 216.78 966.66 215.16 967.06 211.93C967.06 203.45 928.07 202.44 928.07 176.18C928.07 160.02 942.82 136.59 959.38 136.59L959.39 136.58Z" fill="#DB433B"/>
<path d="M144.94 145.26C144.94 153.34 131.41 222.63 128.58 235.76C128.43 236.42 128.27 237.11 128.1 237.8C128.07 237.8 128.04 237.8 128.01 237.81C124.81 251.38 114.51 276.96 86.57 276.96C79.3 276.96 66.37 272.92 60.11 268.28C58.29 267.07 57.69 265.65 57.69 264.04C57.69 261.61 60.52 251.92 61.53 249.69C62.13 248.28 63.34 247.47 64.76 247.47C65.16 247.47 65.97 247.67 66.37 247.88C72.43 250.5 77.69 251.51 81.52 251.51C85.77 251.51 89.89 250.19 93.22 247.53C94.73 246.33 96.04 244.9 97.17 243.34C99.49 240.14 100.07 236.16 100.76 232.37C101.56 227.98 102.36 223.58 103.14 219.18C104.44 211.87 105.69 204.56 106.94 197.25C108.28 189.39 109.6 181.53 110.93 173.67C112.12 166.61 113.31 159.56 114.54 152.51C115.23 148.55 115.86 144.56 116.66 140.61C117.07 138.59 118.88 137.17 121.11 137.17C123.93 137.17 136.26 139.19 141.71 140.61C143.53 141.21 144.94 143.23 144.94 145.25V145.26Z" fill="#DB433B"/>
</g>
<defs>
<clipPath id="clip0_75_288">
<rect width="994.83" height="358.64" fill="white" transform="translate(9 8)"/>
</clipPath>
</defs>
</svg>
